<svg xmlns="http://www.w3.org/2000/svg" width="160mm" height="113.591mm" viewBox="0 0 160 113.591" font-family="Arial Narrow, Helvetica, Arial, sans-serif">
  <defs>
    <filter id="grain"><feTurbulence type="fractalNoise" baseFrequency="6.8" numOctaves="2" stitchTiles="stitch"/><feColorMatrix type="saturate" values="0"/><feComponentTransfer><feFuncA type="table" tableValues="0 .10"/></feComponentTransfer></filter>
    <filter id="softShadow" x="-30%" y="-30%" width="160%" height="160%"><feDropShadow dx="0.4733" dy="0.5916" stdDeviation="0.4733" flood-color="#000" flood-opacity=".28"/></filter>
    <radialGradient id="knobMetal"><stop offset="0" stop-color="#f8f8f8"/><stop offset="0.35" stop-color="#bfc3c5"/><stop offset="0.55" stop-color="#f4f4f4"/><stop offset="1" stop-color="#777"/></radialGradient>
    <radialGradient id="blueRing"><stop offset="0" stop-color="#1688cc"/><stop offset="0.55" stop-color="#006da8"/><stop offset="1" stop-color="#003d62"/></radialGradient>
    <radialGradient id="redLed"><stop offset="0" stop-color="#ff4a4a"/><stop offset="0.55" stop-color="#d00000"/><stop offset="1" stop-color="#650000"/></radialGradient>
  </defs>
<rect x="0" y="0" width="160" height="113.591" rx="2.5" fill="#cfcfcf"/>
<rect x="0" y="0" width="160" height="113.591" rx="2.5" fill="#d0d0d0" filter="url(#grain)"/>
<rect x="0.5" y="0.5" width="159" height="112.591" rx="2.2" fill="none" stroke="#9a9a9a" stroke-width="0.5"/>
<rect x="1.6" y="1.3" width="156.8" height="5" rx="2" fill="#f4f4f4" stroke="#b9b9b9" stroke-width="0.3"/>
<text x="80.00" y="4.60" font-family="Arial Narrow, Helvetica, Arial, sans-serif" font-size="3.3" font-weight="700" font-style="italic" fill="#163a69" text-anchor="middle">QUAD LOW PASS GATE</text>
<text x="155.50" y="4.60" font-family="Arial Narrow, Helvetica, Arial, sans-serif" font-size="2.9" font-weight="700" font-style="italic" fill="#163a69" text-anchor="end">292</text>
<text x="34.00" y="9.20" font-family="Arial Narrow, Helvetica, Arial, sans-serif" font-size="2.3" font-weight="700" font-style="italic" fill="#163a69" text-anchor="middle">LEVEL</text>
<text x="51.00" y="9.20" font-family="Arial Narrow, Helvetica, Arial, sans-serif" font-size="2.3" font-weight="700" font-style="italic" fill="#163a69" text-anchor="middle">DECAY</text>
<text x="67.00" y="9.20" font-family="Arial Narrow, Helvetica, Arial, sans-serif" font-size="2.3" font-weight="700" font-style="italic" fill="#163a69" text-anchor="middle">MODE</text>
<text x="82.00" y="9.20" font-family="Arial Narrow, Helvetica, Arial, sans-serif" font-size="2.3" font-weight="700" font-style="italic" fill="#163a69" text-anchor="middle">STRIKE</text>
<text x="106.00" y="9.20" font-family="Arial Narrow, Helvetica, Arial, sans-serif" font-size="2.3" font-weight="700" font-style="italic" fill="#163a69" text-anchor="middle">CLOCK</text>
<text x="137.00" y="9.20" font-family="Arial Narrow, Helvetica, Arial, sans-serif" font-size="2.3" font-weight="700" font-style="italic" fill="#163a69" text-anchor="middle">IN / OUT</text>
<text x="8.00" y="23.35" font-family="Arial Narrow, Helvetica, Arial, sans-serif" font-size="7" font-weight="700" font-style="italic" fill="#163a69" text-anchor="middle">A</text>
<circle cx="18.00" cy="20.95" r="3.5497" fill="#ff7300" stroke="#000" stroke-width="0.3" filter="url(#softShadow)"/><circle cx="18.00" cy="20.95" r="1.8932" fill="#000"/><text x="18.00" y="27.05" font-family="Arial Narrow, Helvetica, Arial, sans-serif" font-size="2.3" font-weight="700" font-style="italic" fill="#163a69" text-anchor="middle">IN</text>
<circle cx="34.00" cy="20.95" r="6.40" fill="url(#blueRing)" stroke="#004b7a" stroke-width="0.355" filter="url(#softShadow)"/><line x1="29.69" y1="25.26" x2="30.18" y2="24.77" stroke="#163a69" stroke-width="0.3"/><line x1="27.90" y1="20.95" x2="28.60" y2="20.95" stroke="#163a69" stroke-width="0.3"/><line x1="29.69" y1="16.64" x2="30.18" y2="17.13" stroke="#163a69" stroke-width="0.3"/><line x1="34.00" y1="14.85" x2="34.00" y2="15.55" stroke="#163a69" stroke-width="0.3"/><line x1="38.31" y1="16.64" x2="37.82" y2="17.13" stroke="#163a69" stroke-width="0.3"/><line x1="40.10" y1="20.95" x2="39.40" y2="20.95" stroke="#163a69" stroke-width="0.3"/><line x1="38.31" y1="25.26" x2="37.82" y2="24.77" stroke="#163a69" stroke-width="0.3"/><circle cx="34.00" cy="20.95" r="4.90" fill="url(#knobMetal)" stroke="#666" stroke-width="0.2366"/><line x1="34.00" y1="20.95" x2="30.82" y2="17.77" stroke="#163a69" stroke-width="0.5916"/>
<circle cx="51.00" cy="20.95" r="5.60" fill="url(#blueRing)" stroke="#004b7a" stroke-width="0.355" filter="url(#softShadow)"/><line x1="47.25" y1="24.70" x2="47.68" y2="24.27" stroke="#163a69" stroke-width="0.3"/><line x1="45.70" y1="20.95" x2="46.30" y2="20.95" stroke="#163a69" stroke-width="0.3"/><line x1="47.25" y1="17.20" x2="47.68" y2="17.63" stroke="#163a69" stroke-width="0.3"/><line x1="51.00" y1="15.65" x2="51.00" y2="16.25" stroke="#163a69" stroke-width="0.3"/><line x1="54.75" y1="17.20" x2="54.32" y2="17.63" stroke="#163a69" stroke-width="0.3"/><line x1="56.30" y1="20.95" x2="55.70" y2="20.95" stroke="#163a69" stroke-width="0.3"/><line x1="54.75" y1="24.70" x2="54.32" y2="24.27" stroke="#163a69" stroke-width="0.3"/><circle cx="51.00" cy="20.95" r="4.20" fill="url(#knobMetal)" stroke="#666" stroke-width="0.2366"/><line x1="51.00" y1="20.95" x2="48.31" y2="18.26" stroke="#163a69" stroke-width="0.5916"/>
<circle cx="67.00" cy="18.35" r="1.66" fill="url(#redLed)" stroke="#7c0000" stroke-width="0.2366" filter="url(#softShadow)"/><circle cx="66.44" cy="17.79" r="0.50" fill="#ffb4b4" opacity="0.85"/><text x="69.70" y="18.95" font-family="Arial Narrow, Helvetica, Arial, sans-serif" font-size="2.1" font-weight="700" font-style="italic" fill="#163a69" text-anchor="start">VCA</text>
<circle cx="67.00" cy="23.55" r="1.66" fill="url(#redLed)" stroke="#7c0000" stroke-width="0.2366" filter="url(#softShadow)"/><circle cx="66.44" cy="22.99" r="0.50" fill="#ffb4b4" opacity="0.85"/><text x="69.70" y="24.15" font-family="Arial Narrow, Helvetica, Arial, sans-serif" font-size="2.1" font-weight="700" font-style="italic" fill="#163a69" text-anchor="start">LP</text>
<circle cx="82.00" cy="20.95" r="2.70" fill="url(#redLed)" stroke="#7c0000" stroke-width="0.2366" filter="url(#softShadow)"/><circle cx="81.08" cy="20.03" r="0.81" fill="#ffb4b4" opacity="0.85"/>
<circle cx="99.00" cy="20.95" r="4.10" fill="url(#blueRing)" stroke="#004b7a" stroke-width="0.355" filter="url(#softShadow)"/><line x1="96.31" y1="23.64" x2="96.74" y2="23.21" stroke="#163a69" stroke-width="0.3"/><line x1="95.25" y1="20.36" x2="95.84" y2="20.45" stroke="#163a69" stroke-width="0.3"/><line x1="97.27" y1="17.56" x2="97.55" y2="18.10" stroke="#163a69" stroke-width="0.3"/><line x1="100.73" y1="17.56" x2="100.45" y2="18.10" stroke="#163a69" stroke-width="0.3"/><line x1="102.75" y1="20.36" x2="102.16" y2="20.45" stroke="#163a69" stroke-width="0.3"/><line x1="101.69" y1="23.64" x2="101.26" y2="23.21" stroke="#163a69" stroke-width="0.3"/><circle cx="99.00" cy="20.95" r="2.70" fill="url(#knobMetal)" stroke="#666" stroke-width="0.2366"/><line x1="99.00" y1="20.95" x2="99.00" y2="18.65" stroke="#163a69" stroke-width="0.5916"/><text x="94.76" y="25.89" font-family="Arial Narrow, Helvetica, Arial, sans-serif" font-size="1.9" font-weight="700" font-style="italic" fill="#163a69" text-anchor="middle">1</text><text x="93.07" y="20.71" font-family="Arial Narrow, Helvetica, Arial, sans-serif" font-size="1.9" font-weight="700" font-style="italic" fill="#163a69" text-anchor="middle">2</text><text x="96.28" y="16.30" font-family="Arial Narrow, Helvetica, Arial, sans-serif" font-size="1.9" font-weight="700" font-style="italic" fill="#163a69" text-anchor="middle">3</text><text x="101.72" y="16.30" font-family="Arial Narrow, Helvetica, Arial, sans-serif" font-size="1.9" font-weight="700" font-style="italic" fill="#163a69" text-anchor="middle">4</text><text x="104.93" y="20.71" font-family="Arial Narrow, Helvetica, Arial, sans-serif" font-size="1.9" font-weight="700" font-style="italic" fill="#163a69" text-anchor="middle">6</text><text x="103.24" y="25.89" font-family="Arial Narrow, Helvetica, Arial, sans-serif" font-size="1.9" font-weight="700" font-style="italic" fill="#163a69" text-anchor="middle">8</text>
<circle cx="113.00" cy="20.35" r="1.66" fill="url(#redLed)" stroke="#7c0000" stroke-width="0.2366" filter="url(#softShadow)"/><circle cx="112.44" cy="19.79" r="0.50" fill="#ffb4b4" opacity="0.85"/><text x="113.00" y="25.15" font-family="Arial Narrow, Helvetica, Arial, sans-serif" font-size="2" font-weight="700" font-style="italic" fill="#163a69" text-anchor="middle">ON</text>
<circle cx="126.00" cy="20.95" r="3.5497" fill="#1f7fe0" stroke="#000" stroke-width="0.3" filter="url(#softShadow)"/><circle cx="126.00" cy="20.95" r="1.8932" fill="#000"/><text x="126.00" y="27.05" font-family="Arial Narrow, Helvetica, Arial, sans-serif" font-size="2.3" font-weight="700" font-style="italic" fill="#163a69" text-anchor="middle">CV</text>
<circle cx="137.00" cy="20.95" r="3.5497" fill="#141414" stroke="#000" stroke-width="0.3" filter="url(#softShadow)"/><circle cx="137.00" cy="20.95" r="1.8932" fill="#000"/><text x="137.00" y="27.05" font-family="Arial Narrow, Helvetica, Arial, sans-serif" font-size="2.3" font-weight="700" font-style="italic" fill="#163a69" text-anchor="middle">TRIG</text>
<circle cx="148.00" cy="20.95" r="4.023" fill="#ff7300" stroke="#dd0000" stroke-width="0.5" filter="url(#softShadow)"/><circle cx="148.00" cy="20.95" r="2.13" fill="#000"/><text x="148.00" y="27.55" font-family="Arial Narrow, Helvetica, Arial, sans-serif" font-size="2.3" font-weight="700" font-style="italic" fill="#163a69" text-anchor="middle">OUT</text>
<line x1="6" y1="31.30" x2="154" y2="31.30" stroke="#163a69" stroke-width="0.25" opacity="0.35"/>
<text x="8.00" y="44.05" font-family="Arial Narrow, Helvetica, Arial, sans-serif" font-size="7" font-weight="700" font-style="italic" fill="#163a69" text-anchor="middle">B</text>
<circle cx="18.00" cy="41.65" r="3.5497" fill="#ff7300" stroke="#000" stroke-width="0.3" filter="url(#softShadow)"/><circle cx="18.00" cy="41.65" r="1.8932" fill="#000"/><text x="18.00" y="47.75" font-family="Arial Narrow, Helvetica, Arial, sans-serif" font-size="2.3" font-weight="700" font-style="italic" fill="#163a69" text-anchor="middle">IN</text>
<circle cx="34.00" cy="41.65" r="6.40" fill="url(#blueRing)" stroke="#004b7a" stroke-width="0.355" filter="url(#softShadow)"/><line x1="29.69" y1="45.96" x2="30.18" y2="45.47" stroke="#163a69" stroke-width="0.3"/><line x1="27.90" y1="41.65" x2="28.60" y2="41.65" stroke="#163a69" stroke-width="0.3"/><line x1="29.69" y1="37.34" x2="30.18" y2="37.83" stroke="#163a69" stroke-width="0.3"/><line x1="34.00" y1="35.55" x2="34.00" y2="36.25" stroke="#163a69" stroke-width="0.3"/><line x1="38.31" y1="37.34" x2="37.82" y2="37.83" stroke="#163a69" stroke-width="0.3"/><line x1="40.10" y1="41.65" x2="39.40" y2="41.65" stroke="#163a69" stroke-width="0.3"/><line x1="38.31" y1="45.96" x2="37.82" y2="45.47" stroke="#163a69" stroke-width="0.3"/><circle cx="34.00" cy="41.65" r="4.90" fill="url(#knobMetal)" stroke="#666" stroke-width="0.2366"/><line x1="34.00" y1="41.65" x2="30.82" y2="38.47" stroke="#163a69" stroke-width="0.5916"/>
<circle cx="51.00" cy="41.65" r="5.60" fill="url(#blueRing)" stroke="#004b7a" stroke-width="0.355" filter="url(#softShadow)"/><line x1="47.25" y1="45.40" x2="47.68" y2="44.97" stroke="#163a69" stroke-width="0.3"/><line x1="45.70" y1="41.65" x2="46.30" y2="41.65" stroke="#163a69" stroke-width="0.3"/><line x1="47.25" y1="37.90" x2="47.68" y2="38.33" stroke="#163a69" stroke-width="0.3"/><line x1="51.00" y1="36.35" x2="51.00" y2="36.95" stroke="#163a69" stroke-width="0.3"/><line x1="54.75" y1="37.90" x2="54.32" y2="38.33" stroke="#163a69" stroke-width="0.3"/><line x1="56.30" y1="41.65" x2="55.70" y2="41.65" stroke="#163a69" stroke-width="0.3"/><line x1="54.75" y1="45.40" x2="54.32" y2="44.97" stroke="#163a69" stroke-width="0.3"/><circle cx="51.00" cy="41.65" r="4.20" fill="url(#knobMetal)" stroke="#666" stroke-width="0.2366"/><line x1="51.00" y1="41.65" x2="48.31" y2="38.96" stroke="#163a69" stroke-width="0.5916"/>
<circle cx="67.00" cy="39.05" r="1.66" fill="url(#redLed)" stroke="#7c0000" stroke-width="0.2366" filter="url(#softShadow)"/><circle cx="66.44" cy="38.49" r="0.50" fill="#ffb4b4" opacity="0.85"/><text x="69.70" y="39.65" font-family="Arial Narrow, Helvetica, Arial, sans-serif" font-size="2.1" font-weight="700" font-style="italic" fill="#163a69" text-anchor="start">VCA</text>
<circle cx="67.00" cy="44.25" r="1.66" fill="url(#redLed)" stroke="#7c0000" stroke-width="0.2366" filter="url(#softShadow)"/><circle cx="66.44" cy="43.69" r="0.50" fill="#ffb4b4" opacity="0.85"/><text x="69.70" y="44.85" font-family="Arial Narrow, Helvetica, Arial, sans-serif" font-size="2.1" font-weight="700" font-style="italic" fill="#163a69" text-anchor="start">LP</text>
<circle cx="82.00" cy="41.65" r="2.70" fill="url(#redLed)" stroke="#7c0000" stroke-width="0.2366" filter="url(#softShadow)"/><circle cx="81.08" cy="40.73" r="0.81" fill="#ffb4b4" opacity="0.85"/>
<circle cx="99.00" cy="41.65" r="4.10" fill="url(#blueRing)" stroke="#004b7a" stroke-width="0.355" filter="url(#softShadow)"/><line x1="96.31" y1="44.34" x2="96.74" y2="43.91" stroke="#163a69" stroke-width="0.3"/><line x1="95.25" y1="41.06" x2="95.84" y2="41.15" stroke="#163a69" stroke-width="0.3"/><line x1="97.27" y1="38.26" x2="97.55" y2="38.80" stroke="#163a69" stroke-width="0.3"/><line x1="100.73" y1="38.26" x2="100.45" y2="38.80" stroke="#163a69" stroke-width="0.3"/><line x1="102.75" y1="41.06" x2="102.16" y2="41.15" stroke="#163a69" stroke-width="0.3"/><line x1="101.69" y1="44.34" x2="101.26" y2="43.91" stroke="#163a69" stroke-width="0.3"/><circle cx="99.00" cy="41.65" r="2.70" fill="url(#knobMetal)" stroke="#666" stroke-width="0.2366"/><line x1="99.00" y1="41.65" x2="99.00" y2="39.35" stroke="#163a69" stroke-width="0.5916"/><text x="94.76" y="46.59" font-family="Arial Narrow, Helvetica, Arial, sans-serif" font-size="1.9" font-weight="700" font-style="italic" fill="#163a69" text-anchor="middle">1</text><text x="93.07" y="41.41" font-family="Arial Narrow, Helvetica, Arial, sans-serif" font-size="1.9" font-weight="700" font-style="italic" fill="#163a69" text-anchor="middle">2</text><text x="96.28" y="37.00" font-family="Arial Narrow, Helvetica, Arial, sans-serif" font-size="1.9" font-weight="700" font-style="italic" fill="#163a69" text-anchor="middle">3</text><text x="101.72" y="37.00" font-family="Arial Narrow, Helvetica, Arial, sans-serif" font-size="1.9" font-weight="700" font-style="italic" fill="#163a69" text-anchor="middle">4</text><text x="104.93" y="41.41" font-family="Arial Narrow, Helvetica, Arial, sans-serif" font-size="1.9" font-weight="700" font-style="italic" fill="#163a69" text-anchor="middle">6</text><text x="103.24" y="46.59" font-family="Arial Narrow, Helvetica, Arial, sans-serif" font-size="1.9" font-weight="700" font-style="italic" fill="#163a69" text-anchor="middle">8</text>
<circle cx="113.00" cy="41.05" r="1.66" fill="url(#redLed)" stroke="#7c0000" stroke-width="0.2366" filter="url(#softShadow)"/><circle cx="112.44" cy="40.49" r="0.50" fill="#ffb4b4" opacity="0.85"/><text x="113.00" y="45.85" font-family="Arial Narrow, Helvetica, Arial, sans-serif" font-size="2" font-weight="700" font-style="italic" fill="#163a69" text-anchor="middle">ON</text>
<circle cx="126.00" cy="41.65" r="3.5497" fill="#1f7fe0" stroke="#000" stroke-width="0.3" filter="url(#softShadow)"/><circle cx="126.00" cy="41.65" r="1.8932" fill="#000"/><text x="126.00" y="47.75" font-family="Arial Narrow, Helvetica, Arial, sans-serif" font-size="2.3" font-weight="700" font-style="italic" fill="#163a69" text-anchor="middle">CV</text>
<circle cx="137.00" cy="41.65" r="3.5497" fill="#141414" stroke="#000" stroke-width="0.3" filter="url(#softShadow)"/><circle cx="137.00" cy="41.65" r="1.8932" fill="#000"/><text x="137.00" y="47.75" font-family="Arial Narrow, Helvetica, Arial, sans-serif" font-size="2.3" font-weight="700" font-style="italic" fill="#163a69" text-anchor="middle">TRIG</text>
<circle cx="148.00" cy="41.65" r="4.023" fill="#ff7300" stroke="#dd0000" stroke-width="0.5" filter="url(#softShadow)"/><circle cx="148.00" cy="41.65" r="2.13" fill="#000"/><text x="148.00" y="48.25" font-family="Arial Narrow, Helvetica, Arial, sans-serif" font-size="2.3" font-weight="700" font-style="italic" fill="#163a69" text-anchor="middle">OUT</text>
<line x1="6" y1="52.00" x2="154" y2="52.00" stroke="#163a69" stroke-width="0.25" opacity="0.35"/>
<text x="8.00" y="64.75" font-family="Arial Narrow, Helvetica, Arial, sans-serif" font-size="7" font-weight="700" font-style="italic" fill="#163a69" text-anchor="middle">C</text>
<circle cx="18.00" cy="62.35" r="3.5497" fill="#ff7300" stroke="#000" stroke-width="0.3" filter="url(#softShadow)"/><circle cx="18.00" cy="62.35" r="1.8932" fill="#000"/><text x="18.00" y="68.45" font-family="Arial Narrow, Helvetica, Arial, sans-serif" font-size="2.3" font-weight="700" font-style="italic" fill="#163a69" text-anchor="middle">IN</text>
<circle cx="34.00" cy="62.35" r="6.40" fill="url(#blueRing)" stroke="#004b7a" stroke-width="0.355" filter="url(#softShadow)"/><line x1="29.69" y1="66.66" x2="30.18" y2="66.17" stroke="#163a69" stroke-width="0.3"/><line x1="27.90" y1="62.35" x2="28.60" y2="62.35" stroke="#163a69" stroke-width="0.3"/><line x1="29.69" y1="58.04" x2="30.18" y2="58.53" stroke="#163a69" stroke-width="0.3"/><line x1="34.00" y1="56.25" x2="34.00" y2="56.95" stroke="#163a69" stroke-width="0.3"/><line x1="38.31" y1="58.04" x2="37.82" y2="58.53" stroke="#163a69" stroke-width="0.3"/><line x1="40.10" y1="62.35" x2="39.40" y2="62.35" stroke="#163a69" stroke-width="0.3"/><line x1="38.31" y1="66.66" x2="37.82" y2="66.17" stroke="#163a69" stroke-width="0.3"/><circle cx="34.00" cy="62.35" r="4.90" fill="url(#knobMetal)" stroke="#666" stroke-width="0.2366"/><line x1="34.00" y1="62.35" x2="30.82" y2="59.17" stroke="#163a69" stroke-width="0.5916"/>
<circle cx="51.00" cy="62.35" r="5.60" fill="url(#blueRing)" stroke="#004b7a" stroke-width="0.355" filter="url(#softShadow)"/><line x1="47.25" y1="66.10" x2="47.68" y2="65.67" stroke="#163a69" stroke-width="0.3"/><line x1="45.70" y1="62.35" x2="46.30" y2="62.35" stroke="#163a69" stroke-width="0.3"/><line x1="47.25" y1="58.60" x2="47.68" y2="59.03" stroke="#163a69" stroke-width="0.3"/><line x1="51.00" y1="57.05" x2="51.00" y2="57.65" stroke="#163a69" stroke-width="0.3"/><line x1="54.75" y1="58.60" x2="54.32" y2="59.03" stroke="#163a69" stroke-width="0.3"/><line x1="56.30" y1="62.35" x2="55.70" y2="62.35" stroke="#163a69" stroke-width="0.3"/><line x1="54.75" y1="66.10" x2="54.32" y2="65.67" stroke="#163a69" stroke-width="0.3"/><circle cx="51.00" cy="62.35" r="4.20" fill="url(#knobMetal)" stroke="#666" stroke-width="0.2366"/><line x1="51.00" y1="62.35" x2="48.31" y2="59.66" stroke="#163a69" stroke-width="0.5916"/>
<circle cx="67.00" cy="59.75" r="1.66" fill="url(#redLed)" stroke="#7c0000" stroke-width="0.2366" filter="url(#softShadow)"/><circle cx="66.44" cy="59.19" r="0.50" fill="#ffb4b4" opacity="0.85"/><text x="69.70" y="60.35" font-family="Arial Narrow, Helvetica, Arial, sans-serif" font-size="2.1" font-weight="700" font-style="italic" fill="#163a69" text-anchor="start">VCA</text>
<circle cx="67.00" cy="64.95" r="1.66" fill="url(#redLed)" stroke="#7c0000" stroke-width="0.2366" filter="url(#softShadow)"/><circle cx="66.44" cy="64.39" r="0.50" fill="#ffb4b4" opacity="0.85"/><text x="69.70" y="65.55" font-family="Arial Narrow, Helvetica, Arial, sans-serif" font-size="2.1" font-weight="700" font-style="italic" fill="#163a69" text-anchor="start">LP</text>
<circle cx="82.00" cy="62.35" r="2.70" fill="url(#redLed)" stroke="#7c0000" stroke-width="0.2366" filter="url(#softShadow)"/><circle cx="81.08" cy="61.43" r="0.81" fill="#ffb4b4" opacity="0.85"/>
<circle cx="99.00" cy="62.35" r="4.10" fill="url(#blueRing)" stroke="#004b7a" stroke-width="0.355" filter="url(#softShadow)"/><line x1="96.31" y1="65.04" x2="96.74" y2="64.61" stroke="#163a69" stroke-width="0.3"/><line x1="95.25" y1="61.76" x2="95.84" y2="61.85" stroke="#163a69" stroke-width="0.3"/><line x1="97.27" y1="58.96" x2="97.55" y2="59.50" stroke="#163a69" stroke-width="0.3"/><line x1="100.73" y1="58.96" x2="100.45" y2="59.50" stroke="#163a69" stroke-width="0.3"/><line x1="102.75" y1="61.76" x2="102.16" y2="61.85" stroke="#163a69" stroke-width="0.3"/><line x1="101.69" y1="65.04" x2="101.26" y2="64.61" stroke="#163a69" stroke-width="0.3"/><circle cx="99.00" cy="62.35" r="2.70" fill="url(#knobMetal)" stroke="#666" stroke-width="0.2366"/><line x1="99.00" y1="62.35" x2="99.00" y2="60.05" stroke="#163a69" stroke-width="0.5916"/><text x="94.76" y="67.29" font-family="Arial Narrow, Helvetica, Arial, sans-serif" font-size="1.9" font-weight="700" font-style="italic" fill="#163a69" text-anchor="middle">1</text><text x="93.07" y="62.11" font-family="Arial Narrow, Helvetica, Arial, sans-serif" font-size="1.9" font-weight="700" font-style="italic" fill="#163a69" text-anchor="middle">2</text><text x="96.28" y="57.70" font-family="Arial Narrow, Helvetica, Arial, sans-serif" font-size="1.9" font-weight="700" font-style="italic" fill="#163a69" text-anchor="middle">3</text><text x="101.72" y="57.70" font-family="Arial Narrow, Helvetica, Arial, sans-serif" font-size="1.9" font-weight="700" font-style="italic" fill="#163a69" text-anchor="middle">4</text><text x="104.93" y="62.11" font-family="Arial Narrow, Helvetica, Arial, sans-serif" font-size="1.9" font-weight="700" font-style="italic" fill="#163a69" text-anchor="middle">6</text><text x="103.24" y="67.29" font-family="Arial Narrow, Helvetica, Arial, sans-serif" font-size="1.9" font-weight="700" font-style="italic" fill="#163a69" text-anchor="middle">8</text>
<circle cx="113.00" cy="61.75" r="1.66" fill="url(#redLed)" stroke="#7c0000" stroke-width="0.2366" filter="url(#softShadow)"/><circle cx="112.44" cy="61.19" r="0.50" fill="#ffb4b4" opacity="0.85"/><text x="113.00" y="66.55" font-family="Arial Narrow, Helvetica, Arial, sans-serif" font-size="2" font-weight="700" font-style="italic" fill="#163a69" text-anchor="middle">ON</text>
<circle cx="126.00" cy="62.35" r="3.5497" fill="#1f7fe0" stroke="#000" stroke-width="0.3" filter="url(#softShadow)"/><circle cx="126.00" cy="62.35" r="1.8932" fill="#000"/><text x="126.00" y="68.45" font-family="Arial Narrow, Helvetica, Arial, sans-serif" font-size="2.3" font-weight="700" font-style="italic" fill="#163a69" text-anchor="middle">CV</text>
<circle cx="137.00" cy="62.35" r="3.5497" fill="#141414" stroke="#000" stroke-width="0.3" filter="url(#softShadow)"/><circle cx="137.00" cy="62.35" r="1.8932" fill="#000"/><text x="137.00" y="68.45" font-family="Arial Narrow, Helvetica, Arial, sans-serif" font-size="2.3" font-weight="700" font-style="italic" fill="#163a69" text-anchor="middle">TRIG</text>
<circle cx="148.00" cy="62.35" r="4.023" fill="#ff7300" stroke="#dd0000" stroke-width="0.5" filter="url(#softShadow)"/><circle cx="148.00" cy="62.35" r="2.13" fill="#000"/><text x="148.00" y="68.95" font-family="Arial Narrow, Helvetica, Arial, sans-serif" font-size="2.3" font-weight="700" font-style="italic" fill="#163a69" text-anchor="middle">OUT</text>
<line x1="6" y1="72.70" x2="154" y2="72.70" stroke="#163a69" stroke-width="0.25" opacity="0.35"/>
<text x="8.00" y="85.45" font-family="Arial Narrow, Helvetica, Arial, sans-serif" font-size="7" font-weight="700" font-style="italic" fill="#163a69" text-anchor="middle">D</text>
<circle cx="18.00" cy="83.05" r="3.5497" fill="#ff7300" stroke="#000" stroke-width="0.3" filter="url(#softShadow)"/><circle cx="18.00" cy="83.05" r="1.8932" fill="#000"/><text x="18.00" y="89.15" font-family="Arial Narrow, Helvetica, Arial, sans-serif" font-size="2.3" font-weight="700" font-style="italic" fill="#163a69" text-anchor="middle">IN</text>
<circle cx="34.00" cy="83.05" r="6.40" fill="url(#blueRing)" stroke="#004b7a" stroke-width="0.355" filter="url(#softShadow)"/><line x1="29.69" y1="87.36" x2="30.18" y2="86.87" stroke="#163a69" stroke-width="0.3"/><line x1="27.90" y1="83.05" x2="28.60" y2="83.05" stroke="#163a69" stroke-width="0.3"/><line x1="29.69" y1="78.74" x2="30.18" y2="79.23" stroke="#163a69" stroke-width="0.3"/><line x1="34.00" y1="76.95" x2="34.00" y2="77.65" stroke="#163a69" stroke-width="0.3"/><line x1="38.31" y1="78.74" x2="37.82" y2="79.23" stroke="#163a69" stroke-width="0.3"/><line x1="40.10" y1="83.05" x2="39.40" y2="83.05" stroke="#163a69" stroke-width="0.3"/><line x1="38.31" y1="87.36" x2="37.82" y2="86.87" stroke="#163a69" stroke-width="0.3"/><circle cx="34.00" cy="83.05" r="4.90" fill="url(#knobMetal)" stroke="#666" stroke-width="0.2366"/><line x1="34.00" y1="83.05" x2="30.82" y2="79.87" stroke="#163a69" stroke-width="0.5916"/>
<circle cx="51.00" cy="83.05" r="5.60" fill="url(#blueRing)" stroke="#004b7a" stroke-width="0.355" filter="url(#softShadow)"/><line x1="47.25" y1="86.80" x2="47.68" y2="86.37" stroke="#163a69" stroke-width="0.3"/><line x1="45.70" y1="83.05" x2="46.30" y2="83.05" stroke="#163a69" stroke-width="0.3"/><line x1="47.25" y1="79.30" x2="47.68" y2="79.73" stroke="#163a69" stroke-width="0.3"/><line x1="51.00" y1="77.75" x2="51.00" y2="78.35" stroke="#163a69" stroke-width="0.3"/><line x1="54.75" y1="79.30" x2="54.32" y2="79.73" stroke="#163a69" stroke-width="0.3"/><line x1="56.30" y1="83.05" x2="55.70" y2="83.05" stroke="#163a69" stroke-width="0.3"/><line x1="54.75" y1="86.80" x2="54.32" y2="86.37" stroke="#163a69" stroke-width="0.3"/><circle cx="51.00" cy="83.05" r="4.20" fill="url(#knobMetal)" stroke="#666" stroke-width="0.2366"/><line x1="51.00" y1="83.05" x2="48.31" y2="80.36" stroke="#163a69" stroke-width="0.5916"/>
<circle cx="67.00" cy="80.45" r="1.66" fill="url(#redLed)" stroke="#7c0000" stroke-width="0.2366" filter="url(#softShadow)"/><circle cx="66.44" cy="79.89" r="0.50" fill="#ffb4b4" opacity="0.85"/><text x="69.70" y="81.05" font-family="Arial Narrow, Helvetica, Arial, sans-serif" font-size="2.1" font-weight="700" font-style="italic" fill="#163a69" text-anchor="start">VCA</text>
<circle cx="67.00" cy="85.65" r="1.66" fill="url(#redLed)" stroke="#7c0000" stroke-width="0.2366" filter="url(#softShadow)"/><circle cx="66.44" cy="85.09" r="0.50" fill="#ffb4b4" opacity="0.85"/><text x="69.70" y="86.25" font-family="Arial Narrow, Helvetica, Arial, sans-serif" font-size="2.1" font-weight="700" font-style="italic" fill="#163a69" text-anchor="start">LP</text>
<circle cx="82.00" cy="83.05" r="2.70" fill="url(#redLed)" stroke="#7c0000" stroke-width="0.2366" filter="url(#softShadow)"/><circle cx="81.08" cy="82.13" r="0.81" fill="#ffb4b4" opacity="0.85"/>
<circle cx="99.00" cy="83.05" r="4.10" fill="url(#blueRing)" stroke="#004b7a" stroke-width="0.355" filter="url(#softShadow)"/><line x1="96.31" y1="85.74" x2="96.74" y2="85.31" stroke="#163a69" stroke-width="0.3"/><line x1="95.25" y1="82.46" x2="95.84" y2="82.55" stroke="#163a69" stroke-width="0.3"/><line x1="97.27" y1="79.66" x2="97.55" y2="80.20" stroke="#163a69" stroke-width="0.3"/><line x1="100.73" y1="79.66" x2="100.45" y2="80.20" stroke="#163a69" stroke-width="0.3"/><line x1="102.75" y1="82.46" x2="102.16" y2="82.55" stroke="#163a69" stroke-width="0.3"/><line x1="101.69" y1="85.74" x2="101.26" y2="85.31" stroke="#163a69" stroke-width="0.3"/><circle cx="99.00" cy="83.05" r="2.70" fill="url(#knobMetal)" stroke="#666" stroke-width="0.2366"/><line x1="99.00" y1="83.05" x2="99.00" y2="80.75" stroke="#163a69" stroke-width="0.5916"/><text x="94.76" y="87.99" font-family="Arial Narrow, Helvetica, Arial, sans-serif" font-size="1.9" font-weight="700" font-style="italic" fill="#163a69" text-anchor="middle">1</text><text x="93.07" y="82.81" font-family="Arial Narrow, Helvetica, Arial, sans-serif" font-size="1.9" font-weight="700" font-style="italic" fill="#163a69" text-anchor="middle">2</text><text x="96.28" y="78.40" font-family="Arial Narrow, Helvetica, Arial, sans-serif" font-size="1.9" font-weight="700" font-style="italic" fill="#163a69" text-anchor="middle">3</text><text x="101.72" y="78.40" font-family="Arial Narrow, Helvetica, Arial, sans-serif" font-size="1.9" font-weight="700" font-style="italic" fill="#163a69" text-anchor="middle">4</text><text x="104.93" y="82.81" font-family="Arial Narrow, Helvetica, Arial, sans-serif" font-size="1.9" font-weight="700" font-style="italic" fill="#163a69" text-anchor="middle">6</text><text x="103.24" y="87.99" font-family="Arial Narrow, Helvetica, Arial, sans-serif" font-size="1.9" font-weight="700" font-style="italic" fill="#163a69" text-anchor="middle">8</text>
<circle cx="113.00" cy="82.45" r="1.66" fill="url(#redLed)" stroke="#7c0000" stroke-width="0.2366" filter="url(#softShadow)"/><circle cx="112.44" cy="81.89" r="0.50" fill="#ffb4b4" opacity="0.85"/><text x="113.00" y="87.25" font-family="Arial Narrow, Helvetica, Arial, sans-serif" font-size="2" font-weight="700" font-style="italic" fill="#163a69" text-anchor="middle">ON</text>
<circle cx="126.00" cy="83.05" r="3.5497" fill="#1f7fe0" stroke="#000" stroke-width="0.3" filter="url(#softShadow)"/><circle cx="126.00" cy="83.05" r="1.8932" fill="#000"/><text x="126.00" y="89.15" font-family="Arial Narrow, Helvetica, Arial, sans-serif" font-size="2.3" font-weight="700" font-style="italic" fill="#163a69" text-anchor="middle">CV</text>
<circle cx="137.00" cy="83.05" r="3.5497" fill="#141414" stroke="#000" stroke-width="0.3" filter="url(#softShadow)"/><circle cx="137.00" cy="83.05" r="1.8932" fill="#000"/><text x="137.00" y="89.15" font-family="Arial Narrow, Helvetica, Arial, sans-serif" font-size="2.3" font-weight="700" font-style="italic" fill="#163a69" text-anchor="middle">TRIG</text>
<circle cx="148.00" cy="83.05" r="4.023" fill="#ff7300" stroke="#dd0000" stroke-width="0.5" filter="url(#softShadow)"/><circle cx="148.00" cy="83.05" r="2.13" fill="#000"/><text x="148.00" y="89.65" font-family="Arial Narrow, Helvetica, Arial, sans-serif" font-size="2.3" font-weight="700" font-style="italic" fill="#163a69" text-anchor="middle">OUT</text>
<line x1="6" y1="93.40" x2="154" y2="93.40" stroke="#163a69" stroke-width="0.4" opacity="0.6"/>
<text x="9.00" y="103.10" font-family="Arial Narrow, Helvetica, Arial, sans-serif" font-size="3" font-weight="700" font-style="italic" fill="#163a69" text-anchor="middle">CLK</text>
<circle cx="22.00" cy="102.50" r="4.60" fill="url(#blueRing)" stroke="#004b7a" stroke-width="0.355" filter="url(#softShadow)"/><line x1="18.96" y1="105.54" x2="19.24" y2="105.25" stroke="#163a69" stroke-width="0.3"/><line x1="17.70" y1="102.50" x2="18.10" y2="102.50" stroke="#163a69" stroke-width="0.3"/><line x1="18.96" y1="99.45" x2="19.24" y2="99.74" stroke="#163a69" stroke-width="0.3"/><line x1="22.00" y1="98.20" x2="22.00" y2="98.60" stroke="#163a69" stroke-width="0.3"/><line x1="25.04" y1="99.45" x2="24.76" y2="99.74" stroke="#163a69" stroke-width="0.3"/><line x1="26.30" y1="102.50" x2="25.90" y2="102.50" stroke="#163a69" stroke-width="0.3"/><line x1="25.04" y1="105.54" x2="24.76" y2="105.25" stroke="#163a69" stroke-width="0.3"/><circle cx="22.00" cy="102.50" r="3.40" fill="url(#knobMetal)" stroke="#666" stroke-width="0.2366"/><line x1="22.00" y1="102.50" x2="19.88" y2="100.37" stroke="#163a69" stroke-width="0.5916"/><text x="22.00" y="110.90" font-family="Arial Narrow, Helvetica, Arial, sans-serif" font-size="2.3" font-weight="700" font-style="italic" fill="#163a69" text-anchor="middle">RATE</text>
<circle cx="36.00" cy="102.50" r="1.80" fill="url(#redLed)" stroke="#7c0000" stroke-width="0.2366" filter="url(#softShadow)"/><circle cx="35.39" cy="101.88" r="0.54" fill="#ffb4b4" opacity="0.85"/><text x="36.00" y="108.10" font-family="Arial Narrow, Helvetica, Arial, sans-serif" font-size="2.2" font-weight="700" font-style="italic" fill="#163a69" text-anchor="middle">RUN</text>
<circle cx="49.00" cy="102.50" r="4.023" fill="#141414" stroke="#dd0000" stroke-width="0.5" filter="url(#softShadow)"/><circle cx="49.00" cy="102.50" r="2.13" fill="#000"/><text x="49.00" y="109.10" font-family="Arial Narrow, Helvetica, Arial, sans-serif" font-size="2.3" font-weight="700" font-style="italic" fill="#163a69" text-anchor="middle">CLK OUT</text>
<text x="73.00" y="101.90" font-family="Arial Narrow, Helvetica, Arial, sans-serif" font-size="2.3" font-weight="700" font-style="italic" fill="#163a69" text-anchor="middle">three ways to strike:</text>
<text x="73.00" y="104.90" font-family="Arial Narrow, Helvetica, Arial, sans-serif" font-size="2.3" font-weight="700" font-style="italic" fill="#163a69" text-anchor="middle">button · external · clock</text>
<text x="96.00" y="103.10" font-family="Arial Narrow, Helvetica, Arial, sans-serif" font-size="3" font-weight="700" font-style="italic" fill="#163a69" text-anchor="middle">SUM</text>
<circle cx="112.00" cy="102.50" r="4.023" fill="#ff7300" stroke="#dd0000" stroke-width="0.5" filter="url(#softShadow)"/><circle cx="112.00" cy="102.50" r="2.13" fill="#000"/><text x="112.00" y="109.10" font-family="Arial Narrow, Helvetica, Arial, sans-serif" font-size="2.3" font-weight="700" font-style="italic" fill="#163a69" text-anchor="middle">MIX L</text>
<circle cx="126.00" cy="102.50" r="4.023" fill="#ff7300" stroke="#dd0000" stroke-width="0.5" filter="url(#softShadow)"/><circle cx="126.00" cy="102.50" r="2.13" fill="#000"/><text x="126.00" y="109.10" font-family="Arial Narrow, Helvetica, Arial, sans-serif" font-size="2.3" font-weight="700" font-style="italic" fill="#163a69" text-anchor="middle">MIX R</text>
</svg>