<?xml version="1.0" encoding="utf-8"?>
<!-- GENERATED by tools/gen-dark-panels.mjs from panel.svg — do not edit; edit the light panel and regenerate. -->
<svg xmlns="http://www.w3.org/2000/svg" width="160mm" height="128.5mm" viewBox="0 0 160 128.5" font-family="Arial Narrow, Helvetica, Arial, sans-serif">
<defs>
  <filter id="grain"><feTurbulence type="fractalNoise" baseFrequency="6.8" numOctaves="2" stitchTiles="stitch"/><feColorMatrix type="saturate" values="0"/><feComponentTransfer><feFuncA type="table" tableValues="0 .10"/></feComponentTransfer></filter>
  <filter id="softShadow" x="-30%" y="-30%" width="160%" height="160%"><feDropShadow dx="0.4733" dy="0.5916" stdDeviation="0.4733" flood-color="#000" flood-opacity=".28"/></filter>
  <radialGradient id="knobMetal"><stop offset="0" stop-color="#3a3d43"/><stop offset="0.5" stop-color="#4c5058"/><stop offset="0.78" stop-color="#5a5f67"/><stop offset="1" stop-color="#6b7079"/></radialGradient>
  <radialGradient id="blueRing"><stop offset="0" stop-color="#1688cc"/><stop offset="0.55" stop-color="#006da8"/><stop offset="1" stop-color="#003d62"/></radialGradient>
  <radialGradient id="redLed"><stop offset="0" stop-color="#ff4a4a"/><stop offset="0.55" stop-color="#d00000"/><stop offset="1" stop-color="#650000"/></radialGradient>
</defs>
<g transform="translate(3.9 7.0994)">
<rect x="0" y="0" width="160" height="113.5912" rx="2.5" fill="#262629"/>
<rect x="0" y="0" width="160" height="113.5912" rx="2.5" fill="#2a2a2d" filter="url(#grain)"/>
<rect x="0.5" y="0.5" width="159" height="112.5912" rx="2.2" fill="none" stroke="#808085" stroke-width="0.5"/>
<text x="56.000" y="9.200" font-size="2.3" font-weight="700" font-style="italic" fill="#b8b8bc" text-anchor="middle">LEVEL</text>
<text x="73.000" y="9.200" font-size="2.3" font-weight="700" font-style="italic" fill="#b8b8bc" text-anchor="middle">DECAY</text>
<text x="89.000" y="9.200" font-size="2.3" font-weight="700" font-style="italic" fill="#b8b8bc" text-anchor="middle">MODE</text>
<text x="104.000" y="9.200" font-size="2.3" font-weight="700" font-style="italic" fill="#b8b8bc" text-anchor="middle">STRIKE</text>
<text x="128.000" y="9.200" font-size="2.3" font-weight="700" font-style="italic" fill="#b8b8bc" text-anchor="middle">CLOCK</text>
<text x="8.000" y="23.350" font-size="7" font-weight="700" font-style="italic" fill="#b8b8bc" text-anchor="middle">A</text>
<g data-wcoast-port="inA" data-wcoast-cx="18.000" data-wcoast-cy="20.950"><circle cx="18.000" cy="20.950" r="3.5497" fill="#ff7300" stroke="#000" stroke-width="0.3" filter="url(#softShadow)"/><circle cx="18.000" cy="20.950" r="1.8932" fill="#000"/></g><text x="18.000" y="27.550" font-size="2.3" font-weight="700" font-style="italic" fill="#b8b8bc" text-anchor="middle">IN</text>
<g data-wcoast-param="levelA" data-wcoast-cx="56.000" data-wcoast-cy="20.950"><circle cx="56.000" cy="20.950" r="6.400" fill="url(#blueRing)" stroke="#6fa8d6" stroke-width="0.355" filter="url(#softShadow)"/><line x1="51.687" y1="25.263" x2="52.182" y2="24.768" stroke="#b8b8bc" stroke-width="0.3"/><line x1="49.900" y1="20.950" x2="50.600" y2="20.950" stroke="#b8b8bc" stroke-width="0.3"/><line x1="51.687" y1="16.637" x2="52.182" y2="17.132" stroke="#b8b8bc" stroke-width="0.3"/><line x1="56.000" y1="14.850" x2="56.000" y2="15.550" stroke="#b8b8bc" stroke-width="0.3"/><line x1="60.313" y1="16.637" x2="59.818" y2="17.132" stroke="#b8b8bc" stroke-width="0.3"/><line x1="62.100" y1="20.950" x2="61.400" y2="20.950" stroke="#b8b8bc" stroke-width="0.3"/><line x1="60.313" y1="25.263" x2="59.818" y2="24.768" stroke="#b8b8bc" stroke-width="0.3"/><circle cx="56.000" cy="20.950" r="4.900" fill="url(#knobMetal)" stroke="#b8b8bc" stroke-width="0.2366"/><line x1="56.000" y1="20.950" x2="56.000" y2="16.450" stroke="#b8b8bc" stroke-width="0.5916" data-wcoast-role="indicator"/></g>
<g data-wcoast-param="decayA" data-wcoast-cx="73.000" data-wcoast-cy="20.950"><circle cx="73.000" cy="20.950" r="5.600" fill="url(#blueRing)" stroke="#6fa8d6" stroke-width="0.355" filter="url(#softShadow)"/><line x1="69.252" y1="24.698" x2="69.677" y2="24.273" stroke="#b8b8bc" stroke-width="0.3"/><line x1="67.700" y1="20.950" x2="68.300" y2="20.950" stroke="#b8b8bc" stroke-width="0.3"/><line x1="69.252" y1="17.202" x2="69.677" y2="17.627" stroke="#b8b8bc" stroke-width="0.3"/><line x1="73.000" y1="15.650" x2="73.000" y2="16.250" stroke="#b8b8bc" stroke-width="0.3"/><line x1="76.748" y1="17.202" x2="76.323" y2="17.627" stroke="#b8b8bc" stroke-width="0.3"/><line x1="78.300" y1="20.950" x2="77.700" y2="20.950" stroke="#b8b8bc" stroke-width="0.3"/><line x1="76.748" y1="24.698" x2="76.323" y2="24.273" stroke="#b8b8bc" stroke-width="0.3"/><circle cx="73.000" cy="20.950" r="4.200" fill="url(#knobMetal)" stroke="#b8b8bc" stroke-width="0.2366"/><line x1="73.000" y1="20.950" x2="73.000" y2="17.150" stroke="#b8b8bc" stroke-width="0.5916" data-wcoast-role="indicator"/></g>
<g data-wcoast-param="vcaA"><circle cx="89.000" cy="18.350" r="1.660" fill="url(#redLed)" stroke="#7c0000" stroke-width="0.2366" filter="url(#softShadow)" data-wcoast-role="step-indicator" data-wcoast-step="on"/><circle cx="88.436" cy="17.786" r="0.498" fill="#ffb4b4" opacity="0.85"/></g><text x="91.700" y="18.950" font-size="2.1" font-weight="700" font-style="italic" fill="#b8b8bc" text-anchor="start">VCA</text>
<g data-wcoast-param="lpA"><circle cx="89.000" cy="23.550" r="1.660" fill="url(#redLed)" stroke="#7c0000" stroke-width="0.2366" filter="url(#softShadow)" data-wcoast-role="step-indicator" data-wcoast-step="on"/><circle cx="88.436" cy="22.986" r="0.498" fill="#ffb4b4" opacity="0.85"/></g><text x="91.700" y="24.150" font-size="2.1" font-weight="700" font-style="italic" fill="#b8b8bc" text-anchor="start">LP</text>
<g data-wcoast-param="strikeA"><circle cx="104.000" cy="20.950" r="2.700" fill="url(#redLed)" stroke="#7c0000" stroke-width="0.2366" filter="url(#softShadow)" data-wcoast-role="step-indicator" data-wcoast-step="on"/><circle cx="103.082" cy="20.032" r="0.810" fill="#ffb4b4" opacity="0.85"/></g>
<g data-wcoast-param="divA" data-wcoast-cx="121.000" data-wcoast-cy="20.950" data-wcoast-angle-min="-135" data-wcoast-angle-max="135"><circle cx="121.000" cy="20.950" r="4.100" fill="url(#blueRing)" stroke="#6fa8d6" stroke-width="0.355" filter="url(#softShadow)"/><line x1="118.313" y1="23.637" x2="118.737" y2="23.213" stroke="#b8b8bc" stroke-width="0.3"/><line x1="117.247" y1="20.356" x2="117.839" y2="20.449" stroke="#b8b8bc" stroke-width="0.3"/><line x1="119.275" y1="17.564" x2="119.547" y2="18.099" stroke="#b8b8bc" stroke-width="0.3"/><line x1="122.725" y1="17.564" x2="122.453" y2="18.099" stroke="#b8b8bc" stroke-width="0.3"/><line x1="124.753" y1="20.356" x2="124.161" y2="20.449" stroke="#b8b8bc" stroke-width="0.3"/><line x1="123.687" y1="23.637" x2="123.263" y2="23.213" stroke="#b8b8bc" stroke-width="0.3"/><text x="116.757" y="25.893" font-size="1.9" font-weight="700" font-style="italic" fill="#b8b8bc" text-anchor="middle">1</text><text x="115.074" y="20.711" font-size="1.9" font-weight="700" font-style="italic" fill="#b8b8bc" text-anchor="middle">2</text><text x="118.276" y="16.304" font-size="1.9" font-weight="700" font-style="italic" fill="#b8b8bc" text-anchor="middle">3</text><text x="123.724" y="16.304" font-size="1.9" font-weight="700" font-style="italic" fill="#b8b8bc" text-anchor="middle">4</text><text x="126.926" y="20.711" font-size="1.9" font-weight="700" font-style="italic" fill="#b8b8bc" text-anchor="middle">6</text><text x="125.243" y="25.893" font-size="1.9" font-weight="700" font-style="italic" fill="#b8b8bc" text-anchor="middle">8</text><circle cx="121.000" cy="20.950" r="2.700" fill="url(#knobMetal)" stroke="#b8b8bc" stroke-width="0.2366"/><line x1="121.000" y1="20.950" x2="121.000" y2="18.650" stroke="#b8b8bc" stroke-width="0.5916" data-wcoast-role="indicator"/></g>
<g data-wcoast-param="clkOnA"><circle cx="135.000" cy="20.350" r="1.660" fill="url(#redLed)" stroke="#7c0000" stroke-width="0.2366" filter="url(#softShadow)" data-wcoast-role="step-indicator" data-wcoast-step="on"/><circle cx="134.436" cy="19.786" r="0.498" fill="#ffb4b4" opacity="0.85"/></g><text x="135.000" y="25.150" font-size="2" font-weight="700" font-style="italic" fill="#b8b8bc" text-anchor="middle">ON</text>
<g data-wcoast-port="cvA" data-wcoast-cx="29.000" data-wcoast-cy="20.950"><circle cx="29.000" cy="20.950" r="3.5497" fill="#1f7fe0" stroke="#000" stroke-width="0.3" filter="url(#softShadow)"/><circle cx="29.000" cy="20.950" r="1.8932" fill="#000"/></g><text x="29.000" y="27.550" font-size="2.3" font-weight="700" font-style="italic" fill="#b8b8bc" text-anchor="middle">CV</text>
<g data-wcoast-port="trigA" data-wcoast-cx="40.000" data-wcoast-cy="20.950"><circle cx="40.000" cy="20.950" r="3.5497" fill="#141414" stroke="#000" stroke-width="0.3" filter="url(#softShadow)"/><circle cx="40.000" cy="20.950" r="1.8932" fill="#000"/></g><text x="40.000" y="27.550" font-size="2.3" font-weight="700" font-style="italic" fill="#b8b8bc" text-anchor="middle">TRIG</text>
<g data-wcoast-port="outA" data-wcoast-cx="148.000" data-wcoast-cy="20.950"><circle cx="148.000" cy="20.950" r="4.023" fill="#ff7300" stroke="#dd0000" stroke-width="0.5" filter="url(#softShadow)"/><circle cx="148.000" cy="20.950" r="2.13" fill="#000"/></g><text x="148.000" y="27.550" font-size="2.3" font-weight="700" font-style="italic" fill="#b8b8bc" text-anchor="middle">OUT</text>
<line x1="6" y1="31.300" x2="154" y2="31.300" stroke="#808085" stroke-width="0.355"/>
<text x="8.000" y="44.050" font-size="7" font-weight="700" font-style="italic" fill="#b8b8bc" text-anchor="middle">B</text>
<g data-wcoast-port="inB" data-wcoast-cx="18.000" data-wcoast-cy="41.650"><circle cx="18.000" cy="41.650" r="3.5497" fill="#ff7300" stroke="#000" stroke-width="0.3" filter="url(#softShadow)"/><circle cx="18.000" cy="41.650" r="1.8932" fill="#000"/></g><text x="18.000" y="48.250" font-size="2.3" font-weight="700" font-style="italic" fill="#b8b8bc" text-anchor="middle">IN</text>
<g data-wcoast-param="levelB" data-wcoast-cx="56.000" data-wcoast-cy="41.650"><circle cx="56.000" cy="41.650" r="6.400" fill="url(#blueRing)" stroke="#6fa8d6" stroke-width="0.355" filter="url(#softShadow)"/><line x1="51.687" y1="45.963" x2="52.182" y2="45.468" stroke="#b8b8bc" stroke-width="0.3"/><line x1="49.900" y1="41.650" x2="50.600" y2="41.650" stroke="#b8b8bc" stroke-width="0.3"/><line x1="51.687" y1="37.337" x2="52.182" y2="37.832" stroke="#b8b8bc" stroke-width="0.3"/><line x1="56.000" y1="35.550" x2="56.000" y2="36.250" stroke="#b8b8bc" stroke-width="0.3"/><line x1="60.313" y1="37.337" x2="59.818" y2="37.832" stroke="#b8b8bc" stroke-width="0.3"/><line x1="62.100" y1="41.650" x2="61.400" y2="41.650" stroke="#b8b8bc" stroke-width="0.3"/><line x1="60.313" y1="45.963" x2="59.818" y2="45.468" stroke="#b8b8bc" stroke-width="0.3"/><circle cx="56.000" cy="41.650" r="4.900" fill="url(#knobMetal)" stroke="#b8b8bc" stroke-width="0.2366"/><line x1="56.000" y1="41.650" x2="56.000" y2="37.150" stroke="#b8b8bc" stroke-width="0.5916" data-wcoast-role="indicator"/></g>
<g data-wcoast-param="decayB" data-wcoast-cx="73.000" data-wcoast-cy="41.650"><circle cx="73.000" cy="41.650" r="5.600" fill="url(#blueRing)" stroke="#6fa8d6" stroke-width="0.355" filter="url(#softShadow)"/><line x1="69.252" y1="45.398" x2="69.677" y2="44.973" stroke="#b8b8bc" stroke-width="0.3"/><line x1="67.700" y1="41.650" x2="68.300" y2="41.650" stroke="#b8b8bc" stroke-width="0.3"/><line x1="69.252" y1="37.902" x2="69.677" y2="38.327" stroke="#b8b8bc" stroke-width="0.3"/><line x1="73.000" y1="36.350" x2="73.000" y2="36.950" stroke="#b8b8bc" stroke-width="0.3"/><line x1="76.748" y1="37.902" x2="76.323" y2="38.327" stroke="#b8b8bc" stroke-width="0.3"/><line x1="78.300" y1="41.650" x2="77.700" y2="41.650" stroke="#b8b8bc" stroke-width="0.3"/><line x1="76.748" y1="45.398" x2="76.323" y2="44.973" stroke="#b8b8bc" stroke-width="0.3"/><circle cx="73.000" cy="41.650" r="4.200" fill="url(#knobMetal)" stroke="#b8b8bc" stroke-width="0.2366"/><line x1="73.000" y1="41.650" x2="73.000" y2="37.850" stroke="#b8b8bc" stroke-width="0.5916" data-wcoast-role="indicator"/></g>
<g data-wcoast-param="vcaB"><circle cx="89.000" cy="39.050" r="1.660" fill="url(#redLed)" stroke="#7c0000" stroke-width="0.2366" filter="url(#softShadow)" data-wcoast-role="step-indicator" data-wcoast-step="on"/><circle cx="88.436" cy="38.486" r="0.498" fill="#ffb4b4" opacity="0.85"/></g><text x="91.700" y="39.650" font-size="2.1" font-weight="700" font-style="italic" fill="#b8b8bc" text-anchor="start">VCA</text>
<g data-wcoast-param="lpB"><circle cx="89.000" cy="44.250" r="1.660" fill="url(#redLed)" stroke="#7c0000" stroke-width="0.2366" filter="url(#softShadow)" data-wcoast-role="step-indicator" data-wcoast-step="on"/><circle cx="88.436" cy="43.686" r="0.498" fill="#ffb4b4" opacity="0.85"/></g><text x="91.700" y="44.850" font-size="2.1" font-weight="700" font-style="italic" fill="#b8b8bc" text-anchor="start">LP</text>
<g data-wcoast-param="strikeB"><circle cx="104.000" cy="41.650" r="2.700" fill="url(#redLed)" stroke="#7c0000" stroke-width="0.2366" filter="url(#softShadow)" data-wcoast-role="step-indicator" data-wcoast-step="on"/><circle cx="103.082" cy="40.732" r="0.810" fill="#ffb4b4" opacity="0.85"/></g>
<g data-wcoast-param="divB" data-wcoast-cx="121.000" data-wcoast-cy="41.650" data-wcoast-angle-min="-135" data-wcoast-angle-max="135"><circle cx="121.000" cy="41.650" r="4.100" fill="url(#blueRing)" stroke="#6fa8d6" stroke-width="0.355" filter="url(#softShadow)"/><line x1="118.313" y1="44.337" x2="118.737" y2="43.913" stroke="#b8b8bc" stroke-width="0.3"/><line x1="117.247" y1="41.056" x2="117.839" y2="41.149" stroke="#b8b8bc" stroke-width="0.3"/><line x1="119.275" y1="38.264" x2="119.547" y2="38.799" stroke="#b8b8bc" stroke-width="0.3"/><line x1="122.725" y1="38.264" x2="122.453" y2="38.799" stroke="#b8b8bc" stroke-width="0.3"/><line x1="124.753" y1="41.056" x2="124.161" y2="41.149" stroke="#b8b8bc" stroke-width="0.3"/><line x1="123.687" y1="44.337" x2="123.263" y2="43.913" stroke="#b8b8bc" stroke-width="0.3"/><text x="116.757" y="46.593" font-size="1.9" font-weight="700" font-style="italic" fill="#b8b8bc" text-anchor="middle">1</text><text x="115.074" y="41.411" font-size="1.9" font-weight="700" font-style="italic" fill="#b8b8bc" text-anchor="middle">2</text><text x="118.276" y="37.004" font-size="1.9" font-weight="700" font-style="italic" fill="#b8b8bc" text-anchor="middle">3</text><text x="123.724" y="37.004" font-size="1.9" font-weight="700" font-style="italic" fill="#b8b8bc" text-anchor="middle">4</text><text x="126.926" y="41.411" font-size="1.9" font-weight="700" font-style="italic" fill="#b8b8bc" text-anchor="middle">6</text><text x="125.243" y="46.593" font-size="1.9" font-weight="700" font-style="italic" fill="#b8b8bc" text-anchor="middle">8</text><circle cx="121.000" cy="41.650" r="2.700" fill="url(#knobMetal)" stroke="#b8b8bc" stroke-width="0.2366"/><line x1="121.000" y1="41.650" x2="121.000" y2="39.350" stroke="#b8b8bc" stroke-width="0.5916" data-wcoast-role="indicator"/></g>
<g data-wcoast-param="clkOnB"><circle cx="135.000" cy="41.050" r="1.660" fill="url(#redLed)" stroke="#7c0000" stroke-width="0.2366" filter="url(#softShadow)" data-wcoast-role="step-indicator" data-wcoast-step="on"/><circle cx="134.436" cy="40.486" r="0.498" fill="#ffb4b4" opacity="0.85"/></g><text x="135.000" y="45.850" font-size="2" font-weight="700" font-style="italic" fill="#b8b8bc" text-anchor="middle">ON</text>
<g data-wcoast-port="cvB" data-wcoast-cx="29.000" data-wcoast-cy="41.650"><circle cx="29.000" cy="41.650" r="3.5497" fill="#1f7fe0" stroke="#000" stroke-width="0.3" filter="url(#softShadow)"/><circle cx="29.000" cy="41.650" r="1.8932" fill="#000"/></g><text x="29.000" y="48.250" font-size="2.3" font-weight="700" font-style="italic" fill="#b8b8bc" text-anchor="middle">CV</text>
<g data-wcoast-port="trigB" data-wcoast-cx="40.000" data-wcoast-cy="41.650"><circle cx="40.000" cy="41.650" r="3.5497" fill="#141414" stroke="#000" stroke-width="0.3" filter="url(#softShadow)"/><circle cx="40.000" cy="41.650" r="1.8932" fill="#000"/></g><text x="40.000" y="48.250" font-size="2.3" font-weight="700" font-style="italic" fill="#b8b8bc" text-anchor="middle">TRIG</text>
<g data-wcoast-port="outB" data-wcoast-cx="148.000" data-wcoast-cy="41.650"><circle cx="148.000" cy="41.650" r="4.023" fill="#ff7300" stroke="#dd0000" stroke-width="0.5" filter="url(#softShadow)"/><circle cx="148.000" cy="41.650" r="2.13" fill="#000"/></g><text x="148.000" y="48.250" font-size="2.3" font-weight="700" font-style="italic" fill="#b8b8bc" text-anchor="middle">OUT</text>
<line x1="6" y1="52.000" x2="154" y2="52.000" stroke="#808085" stroke-width="0.355"/>
<text x="8.000" y="64.750" font-size="7" font-weight="700" font-style="italic" fill="#b8b8bc" text-anchor="middle">C</text>
<g data-wcoast-port="inC" data-wcoast-cx="18.000" data-wcoast-cy="62.350"><circle cx="18.000" cy="62.350" r="3.5497" fill="#ff7300" stroke="#000" stroke-width="0.3" filter="url(#softShadow)"/><circle cx="18.000" cy="62.350" r="1.8932" fill="#000"/></g><text x="18.000" y="68.950" font-size="2.3" font-weight="700" font-style="italic" fill="#b8b8bc" text-anchor="middle">IN</text>
<g data-wcoast-param="levelC" data-wcoast-cx="56.000" data-wcoast-cy="62.350"><circle cx="56.000" cy="62.350" r="6.400" fill="url(#blueRing)" stroke="#6fa8d6" stroke-width="0.355" filter="url(#softShadow)"/><line x1="51.687" y1="66.663" x2="52.182" y2="66.168" stroke="#b8b8bc" stroke-width="0.3"/><line x1="49.900" y1="62.350" x2="50.600" y2="62.350" stroke="#b8b8bc" stroke-width="0.3"/><line x1="51.687" y1="58.037" x2="52.182" y2="58.532" stroke="#b8b8bc" stroke-width="0.3"/><line x1="56.000" y1="56.250" x2="56.000" y2="56.950" stroke="#b8b8bc" stroke-width="0.3"/><line x1="60.313" y1="58.037" x2="59.818" y2="58.532" stroke="#b8b8bc" stroke-width="0.3"/><line x1="62.100" y1="62.350" x2="61.400" y2="62.350" stroke="#b8b8bc" stroke-width="0.3"/><line x1="60.313" y1="66.663" x2="59.818" y2="66.168" stroke="#b8b8bc" stroke-width="0.3"/><circle cx="56.000" cy="62.350" r="4.900" fill="url(#knobMetal)" stroke="#b8b8bc" stroke-width="0.2366"/><line x1="56.000" y1="62.350" x2="56.000" y2="57.850" stroke="#b8b8bc" stroke-width="0.5916" data-wcoast-role="indicator"/></g>
<g data-wcoast-param="decayC" data-wcoast-cx="73.000" data-wcoast-cy="62.350"><circle cx="73.000" cy="62.350" r="5.600" fill="url(#blueRing)" stroke="#6fa8d6" stroke-width="0.355" filter="url(#softShadow)"/><line x1="69.252" y1="66.098" x2="69.677" y2="65.673" stroke="#b8b8bc" stroke-width="0.3"/><line x1="67.700" y1="62.350" x2="68.300" y2="62.350" stroke="#b8b8bc" stroke-width="0.3"/><line x1="69.252" y1="58.602" x2="69.677" y2="59.027" stroke="#b8b8bc" stroke-width="0.3"/><line x1="73.000" y1="57.050" x2="73.000" y2="57.650" stroke="#b8b8bc" stroke-width="0.3"/><line x1="76.748" y1="58.602" x2="76.323" y2="59.027" stroke="#b8b8bc" stroke-width="0.3"/><line x1="78.300" y1="62.350" x2="77.700" y2="62.350" stroke="#b8b8bc" stroke-width="0.3"/><line x1="76.748" y1="66.098" x2="76.323" y2="65.673" stroke="#b8b8bc" stroke-width="0.3"/><circle cx="73.000" cy="62.350" r="4.200" fill="url(#knobMetal)" stroke="#b8b8bc" stroke-width="0.2366"/><line x1="73.000" y1="62.350" x2="73.000" y2="58.550" stroke="#b8b8bc" stroke-width="0.5916" data-wcoast-role="indicator"/></g>
<g data-wcoast-param="vcaC"><circle cx="89.000" cy="59.750" r="1.660" fill="url(#redLed)" stroke="#7c0000" stroke-width="0.2366" filter="url(#softShadow)" data-wcoast-role="step-indicator" data-wcoast-step="on"/><circle cx="88.436" cy="59.186" r="0.498" fill="#ffb4b4" opacity="0.85"/></g><text x="91.700" y="60.350" font-size="2.1" font-weight="700" font-style="italic" fill="#b8b8bc" text-anchor="start">VCA</text>
<g data-wcoast-param="lpC"><circle cx="89.000" cy="64.950" r="1.660" fill="url(#redLed)" stroke="#7c0000" stroke-width="0.2366" filter="url(#softShadow)" data-wcoast-role="step-indicator" data-wcoast-step="on"/><circle cx="88.436" cy="64.386" r="0.498" fill="#ffb4b4" opacity="0.85"/></g><text x="91.700" y="65.550" font-size="2.1" font-weight="700" font-style="italic" fill="#b8b8bc" text-anchor="start">LP</text>
<g data-wcoast-param="strikeC"><circle cx="104.000" cy="62.350" r="2.700" fill="url(#redLed)" stroke="#7c0000" stroke-width="0.2366" filter="url(#softShadow)" data-wcoast-role="step-indicator" data-wcoast-step="on"/><circle cx="103.082" cy="61.432" r="0.810" fill="#ffb4b4" opacity="0.85"/></g>
<g data-wcoast-param="divC" data-wcoast-cx="121.000" data-wcoast-cy="62.350" data-wcoast-angle-min="-135" data-wcoast-angle-max="135"><circle cx="121.000" cy="62.350" r="4.100" fill="url(#blueRing)" stroke="#6fa8d6" stroke-width="0.355" filter="url(#softShadow)"/><line x1="118.313" y1="65.037" x2="118.737" y2="64.613" stroke="#b8b8bc" stroke-width="0.3"/><line x1="117.247" y1="61.756" x2="117.839" y2="61.849" stroke="#b8b8bc" stroke-width="0.3"/><line x1="119.275" y1="58.964" x2="119.547" y2="59.499" stroke="#b8b8bc" stroke-width="0.3"/><line x1="122.725" y1="58.964" x2="122.453" y2="59.499" stroke="#b8b8bc" stroke-width="0.3"/><line x1="124.753" y1="61.756" x2="124.161" y2="61.849" stroke="#b8b8bc" stroke-width="0.3"/><line x1="123.687" y1="65.037" x2="123.263" y2="64.613" stroke="#b8b8bc" stroke-width="0.3"/><text x="116.757" y="67.293" font-size="1.9" font-weight="700" font-style="italic" fill="#b8b8bc" text-anchor="middle">1</text><text x="115.074" y="62.111" font-size="1.9" font-weight="700" font-style="italic" fill="#b8b8bc" text-anchor="middle">2</text><text x="118.276" y="57.704" font-size="1.9" font-weight="700" font-style="italic" fill="#b8b8bc" text-anchor="middle">3</text><text x="123.724" y="57.704" font-size="1.9" font-weight="700" font-style="italic" fill="#b8b8bc" text-anchor="middle">4</text><text x="126.926" y="62.111" font-size="1.9" font-weight="700" font-style="italic" fill="#b8b8bc" text-anchor="middle">6</text><text x="125.243" y="67.293" font-size="1.9" font-weight="700" font-style="italic" fill="#b8b8bc" text-anchor="middle">8</text><circle cx="121.000" cy="62.350" r="2.700" fill="url(#knobMetal)" stroke="#b8b8bc" stroke-width="0.2366"/><line x1="121.000" y1="62.350" x2="121.000" y2="60.050" stroke="#b8b8bc" stroke-width="0.5916" data-wcoast-role="indicator"/></g>
<g data-wcoast-param="clkOnC"><circle cx="135.000" cy="61.750" r="1.660" fill="url(#redLed)" stroke="#7c0000" stroke-width="0.2366" filter="url(#softShadow)" data-wcoast-role="step-indicator" data-wcoast-step="on"/><circle cx="134.436" cy="61.186" r="0.498" fill="#ffb4b4" opacity="0.85"/></g><text x="135.000" y="66.550" font-size="2" font-weight="700" font-style="italic" fill="#b8b8bc" text-anchor="middle">ON</text>
<g data-wcoast-port="cvC" data-wcoast-cx="29.000" data-wcoast-cy="62.350"><circle cx="29.000" cy="62.350" r="3.5497" fill="#1f7fe0" stroke="#000" stroke-width="0.3" filter="url(#softShadow)"/><circle cx="29.000" cy="62.350" r="1.8932" fill="#000"/></g><text x="29.000" y="68.950" font-size="2.3" font-weight="700" font-style="italic" fill="#b8b8bc" text-anchor="middle">CV</text>
<g data-wcoast-port="trigC" data-wcoast-cx="40.000" data-wcoast-cy="62.350"><circle cx="40.000" cy="62.350" r="3.5497" fill="#141414" stroke="#000" stroke-width="0.3" filter="url(#softShadow)"/><circle cx="40.000" cy="62.350" r="1.8932" fill="#000"/></g><text x="40.000" y="68.950" font-size="2.3" font-weight="700" font-style="italic" fill="#b8b8bc" text-anchor="middle">TRIG</text>
<g data-wcoast-port="outC" data-wcoast-cx="148.000" data-wcoast-cy="62.350"><circle cx="148.000" cy="62.350" r="4.023" fill="#ff7300" stroke="#dd0000" stroke-width="0.5" filter="url(#softShadow)"/><circle cx="148.000" cy="62.350" r="2.13" fill="#000"/></g><text x="148.000" y="68.950" font-size="2.3" font-weight="700" font-style="italic" fill="#b8b8bc" text-anchor="middle">OUT</text>
<line x1="6" y1="72.700" x2="154" y2="72.700" stroke="#808085" stroke-width="0.355"/>
<text x="8.000" y="85.450" font-size="7" font-weight="700" font-style="italic" fill="#b8b8bc" text-anchor="middle">D</text>
<g data-wcoast-port="inD" data-wcoast-cx="18.000" data-wcoast-cy="83.050"><circle cx="18.000" cy="83.050" r="3.5497" fill="#ff7300" stroke="#000" stroke-width="0.3" filter="url(#softShadow)"/><circle cx="18.000" cy="83.050" r="1.8932" fill="#000"/></g><text x="18.000" y="89.650" font-size="2.3" font-weight="700" font-style="italic" fill="#b8b8bc" text-anchor="middle">IN</text>
<g data-wcoast-param="levelD" data-wcoast-cx="56.000" data-wcoast-cy="83.050"><circle cx="56.000" cy="83.050" r="6.400" fill="url(#blueRing)" stroke="#6fa8d6" stroke-width="0.355" filter="url(#softShadow)"/><line x1="51.687" y1="87.363" x2="52.182" y2="86.868" stroke="#b8b8bc" stroke-width="0.3"/><line x1="49.900" y1="83.050" x2="50.600" y2="83.050" stroke="#b8b8bc" stroke-width="0.3"/><line x1="51.687" y1="78.737" x2="52.182" y2="79.232" stroke="#b8b8bc" stroke-width="0.3"/><line x1="56.000" y1="76.950" x2="56.000" y2="77.650" stroke="#b8b8bc" stroke-width="0.3"/><line x1="60.313" y1="78.737" x2="59.818" y2="79.232" stroke="#b8b8bc" stroke-width="0.3"/><line x1="62.100" y1="83.050" x2="61.400" y2="83.050" stroke="#b8b8bc" stroke-width="0.3"/><line x1="60.313" y1="87.363" x2="59.818" y2="86.868" stroke="#b8b8bc" stroke-width="0.3"/><circle cx="56.000" cy="83.050" r="4.900" fill="url(#knobMetal)" stroke="#b8b8bc" stroke-width="0.2366"/><line x1="56.000" y1="83.050" x2="56.000" y2="78.550" stroke="#b8b8bc" stroke-width="0.5916" data-wcoast-role="indicator"/></g>
<g data-wcoast-param="decayD" data-wcoast-cx="73.000" data-wcoast-cy="83.050"><circle cx="73.000" cy="83.050" r="5.600" fill="url(#blueRing)" stroke="#6fa8d6" stroke-width="0.355" filter="url(#softShadow)"/><line x1="69.252" y1="86.798" x2="69.677" y2="86.373" stroke="#b8b8bc" stroke-width="0.3"/><line x1="67.700" y1="83.050" x2="68.300" y2="83.050" stroke="#b8b8bc" stroke-width="0.3"/><line x1="69.252" y1="79.302" x2="69.677" y2="79.727" stroke="#b8b8bc" stroke-width="0.3"/><line x1="73.000" y1="77.750" x2="73.000" y2="78.350" stroke="#b8b8bc" stroke-width="0.3"/><line x1="76.748" y1="79.302" x2="76.323" y2="79.727" stroke="#b8b8bc" stroke-width="0.3"/><line x1="78.300" y1="83.050" x2="77.700" y2="83.050" stroke="#b8b8bc" stroke-width="0.3"/><line x1="76.748" y1="86.798" x2="76.323" y2="86.373" stroke="#b8b8bc" stroke-width="0.3"/><circle cx="73.000" cy="83.050" r="4.200" fill="url(#knobMetal)" stroke="#b8b8bc" stroke-width="0.2366"/><line x1="73.000" y1="83.050" x2="73.000" y2="79.250" stroke="#b8b8bc" stroke-width="0.5916" data-wcoast-role="indicator"/></g>
<g data-wcoast-param="vcaD"><circle cx="89.000" cy="80.450" r="1.660" fill="url(#redLed)" stroke="#7c0000" stroke-width="0.2366" filter="url(#softShadow)" data-wcoast-role="step-indicator" data-wcoast-step="on"/><circle cx="88.436" cy="79.886" r="0.498" fill="#ffb4b4" opacity="0.85"/></g><text x="91.700" y="81.050" font-size="2.1" font-weight="700" font-style="italic" fill="#b8b8bc" text-anchor="start">VCA</text>
<g data-wcoast-param="lpD"><circle cx="89.000" cy="85.650" r="1.660" fill="url(#redLed)" stroke="#7c0000" stroke-width="0.2366" filter="url(#softShadow)" data-wcoast-role="step-indicator" data-wcoast-step="on"/><circle cx="88.436" cy="85.086" r="0.498" fill="#ffb4b4" opacity="0.85"/></g><text x="91.700" y="86.250" font-size="2.1" font-weight="700" font-style="italic" fill="#b8b8bc" text-anchor="start">LP</text>
<g data-wcoast-param="strikeD"><circle cx="104.000" cy="83.050" r="2.700" fill="url(#redLed)" stroke="#7c0000" stroke-width="0.2366" filter="url(#softShadow)" data-wcoast-role="step-indicator" data-wcoast-step="on"/><circle cx="103.082" cy="82.132" r="0.810" fill="#ffb4b4" opacity="0.85"/></g>
<g data-wcoast-param="divD" data-wcoast-cx="121.000" data-wcoast-cy="83.050" data-wcoast-angle-min="-135" data-wcoast-angle-max="135"><circle cx="121.000" cy="83.050" r="4.100" fill="url(#blueRing)" stroke="#6fa8d6" stroke-width="0.355" filter="url(#softShadow)"/><line x1="118.313" y1="85.737" x2="118.737" y2="85.313" stroke="#b8b8bc" stroke-width="0.3"/><line x1="117.247" y1="82.456" x2="117.839" y2="82.549" stroke="#b8b8bc" stroke-width="0.3"/><line x1="119.275" y1="79.664" x2="119.547" y2="80.199" stroke="#b8b8bc" stroke-width="0.3"/><line x1="122.725" y1="79.664" x2="122.453" y2="80.199" stroke="#b8b8bc" stroke-width="0.3"/><line x1="124.753" y1="82.456" x2="124.161" y2="82.549" stroke="#b8b8bc" stroke-width="0.3"/><line x1="123.687" y1="85.737" x2="123.263" y2="85.313" stroke="#b8b8bc" stroke-width="0.3"/><text x="116.757" y="87.993" font-size="1.9" font-weight="700" font-style="italic" fill="#b8b8bc" text-anchor="middle">1</text><text x="115.074" y="82.811" font-size="1.9" font-weight="700" font-style="italic" fill="#b8b8bc" text-anchor="middle">2</text><text x="118.276" y="78.404" font-size="1.9" font-weight="700" font-style="italic" fill="#b8b8bc" text-anchor="middle">3</text><text x="123.724" y="78.404" font-size="1.9" font-weight="700" font-style="italic" fill="#b8b8bc" text-anchor="middle">4</text><text x="126.926" y="82.811" font-size="1.9" font-weight="700" font-style="italic" fill="#b8b8bc" text-anchor="middle">6</text><text x="125.243" y="87.993" font-size="1.9" font-weight="700" font-style="italic" fill="#b8b8bc" text-anchor="middle">8</text><circle cx="121.000" cy="83.050" r="2.700" fill="url(#knobMetal)" stroke="#b8b8bc" stroke-width="0.2366"/><line x1="121.000" y1="83.050" x2="121.000" y2="80.750" stroke="#b8b8bc" stroke-width="0.5916" data-wcoast-role="indicator"/></g>
<g data-wcoast-param="clkOnD"><circle cx="135.000" cy="82.450" r="1.660" fill="url(#redLed)" stroke="#7c0000" stroke-width="0.2366" filter="url(#softShadow)" data-wcoast-role="step-indicator" data-wcoast-step="on"/><circle cx="134.436" cy="81.886" r="0.498" fill="#ffb4b4" opacity="0.85"/></g><text x="135.000" y="87.250" font-size="2" font-weight="700" font-style="italic" fill="#b8b8bc" text-anchor="middle">ON</text>
<g data-wcoast-port="cvD" data-wcoast-cx="29.000" data-wcoast-cy="83.050"><circle cx="29.000" cy="83.050" r="3.5497" fill="#1f7fe0" stroke="#000" stroke-width="0.3" filter="url(#softShadow)"/><circle cx="29.000" cy="83.050" r="1.8932" fill="#000"/></g><text x="29.000" y="89.650" font-size="2.3" font-weight="700" font-style="italic" fill="#b8b8bc" text-anchor="middle">CV</text>
<g data-wcoast-port="trigD" data-wcoast-cx="40.000" data-wcoast-cy="83.050"><circle cx="40.000" cy="83.050" r="3.5497" fill="#141414" stroke="#000" stroke-width="0.3" filter="url(#softShadow)"/><circle cx="40.000" cy="83.050" r="1.8932" fill="#000"/></g><text x="40.000" y="89.650" font-size="2.3" font-weight="700" font-style="italic" fill="#b8b8bc" text-anchor="middle">TRIG</text>
<g data-wcoast-port="outD" data-wcoast-cx="148.000" data-wcoast-cy="83.050"><circle cx="148.000" cy="83.050" r="4.023" fill="#ff7300" stroke="#dd0000" stroke-width="0.5" filter="url(#softShadow)"/><circle cx="148.000" cy="83.050" r="2.13" fill="#000"/></g><text x="148.000" y="89.650" font-size="2.3" font-weight="700" font-style="italic" fill="#b8b8bc" text-anchor="middle">OUT</text>
<line x1="6" y1="93.400" x2="154" y2="93.400" stroke="#808085" stroke-width="0.355"/>
<text x="9.000" y="103.096" font-size="3" font-weight="700" font-style="italic" fill="#b8b8bc" text-anchor="middle">CLK</text>
<g data-wcoast-param="rate" data-wcoast-cx="22.000" data-wcoast-cy="102.496"><circle cx="22.000" cy="102.496" r="4.600" fill="url(#blueRing)" stroke="#6fa8d6" stroke-width="0.355" filter="url(#softShadow)"/><line x1="18.959" y1="105.536" x2="19.242" y2="105.253" stroke="#b8b8bc" stroke-width="0.3"/><line x1="17.700" y1="102.496" x2="18.100" y2="102.496" stroke="#b8b8bc" stroke-width="0.3"/><line x1="18.959" y1="99.455" x2="19.242" y2="99.738" stroke="#b8b8bc" stroke-width="0.3"/><line x1="22.000" y1="98.196" x2="22.000" y2="98.596" stroke="#b8b8bc" stroke-width="0.3"/><line x1="25.041" y1="99.455" x2="24.758" y2="99.738" stroke="#b8b8bc" stroke-width="0.3"/><line x1="26.300" y1="102.496" x2="25.900" y2="102.496" stroke="#b8b8bc" stroke-width="0.3"/><line x1="25.041" y1="105.536" x2="24.758" y2="105.253" stroke="#b8b8bc" stroke-width="0.3"/><circle cx="22.000" cy="102.496" r="3.400" fill="url(#knobMetal)" stroke="#b8b8bc" stroke-width="0.2366"/><line x1="22.000" y1="102.496" x2="22.000" y2="99.496" stroke="#b8b8bc" stroke-width="0.5916" data-wcoast-role="indicator"/></g><text x="22.000" y="110.896" font-size="2.3" font-weight="700" font-style="italic" fill="#b8b8bc" text-anchor="middle">RATE</text>
<g data-wcoast-param="run"><circle cx="36.000" cy="102.496" r="1.800" fill="url(#redLed)" stroke="#7c0000" stroke-width="0.2366" filter="url(#softShadow)" data-wcoast-role="step-indicator" data-wcoast-step="on"/><circle cx="35.388" cy="101.884" r="0.540" fill="#ffb4b4" opacity="0.85"/></g><text x="36.000" y="108.096" font-size="2.2" font-weight="700" font-style="italic" fill="#b8b8bc" text-anchor="middle">RUN</text>
<g data-wcoast-port="clkOut" data-wcoast-cx="49.000" data-wcoast-cy="102.496"><circle cx="49.000" cy="102.496" r="4.023" fill="#141414" stroke="#dd0000" stroke-width="0.5" filter="url(#softShadow)"/><circle cx="49.000" cy="102.496" r="2.13" fill="#000"/></g><text x="49.000" y="109.096" font-size="2.3" font-weight="700" font-style="italic" fill="#b8b8bc" text-anchor="middle">CLK OUT</text>
<text x="73.000" y="101.896" font-size="2.3" font-weight="700" font-style="italic" fill="#b8b8bc" text-anchor="middle">three ways to strike:</text>
<text x="73.000" y="104.896" font-size="2.3" font-weight="700" font-style="italic" fill="#b8b8bc" text-anchor="middle">button · external · clock</text>
<text x="96.000" y="103.096" font-size="3" font-weight="700" font-style="italic" fill="#b8b8bc" text-anchor="middle">SUM</text>
<g data-wcoast-port="mixOdd" data-wcoast-cx="112.000" data-wcoast-cy="102.496"><circle cx="112.000" cy="102.496" r="4.023" fill="#ff7300" stroke="#dd0000" stroke-width="0.5" filter="url(#softShadow)"/><circle cx="112.000" cy="102.496" r="2.13" fill="#000"/></g><text x="112.000" y="109.096" font-size="2.2" font-weight="700" font-style="italic" fill="#b8b8bc" text-anchor="middle">ODD  A C</text>
<g data-wcoast-port="mixEven" data-wcoast-cx="126.000" data-wcoast-cy="102.496"><circle cx="126.000" cy="102.496" r="4.023" fill="#ff7300" stroke="#dd0000" stroke-width="0.5" filter="url(#softShadow)"/><circle cx="126.000" cy="102.496" r="2.13" fill="#000"/></g><text x="126.000" y="109.096" font-size="2.2" font-weight="700" font-style="italic" fill="#b8b8bc" text-anchor="middle">EVEN  B D</text>
</g>
</svg>